<svg width="33" height="15" viewBox="0 0 33 15" fill="none" xmlns="http://www.w3.org/2000/svg">
<path d="M32.0743 6.23208L22.6116 0.175961C22.0912 -0.155234 21.3815 -0.0132931 21.003 0.554469C20.8137 0.791036 20.7664 1.12223 20.861 1.40611C20.9083 1.68999 21.0976 1.97387 21.3815 2.11581L27.5322 6.04283H0V8.36119H27.4849L21.3342 12.2882C21.0503 12.4775 20.9084 12.714 20.8137 12.9979C20.7664 13.2818 20.8137 13.613 20.9557 13.8496C21.1922 14.1807 21.5234 14.37 21.9492 14.37C22.1858 14.37 22.3751 14.3227 22.5643 14.1807L32.027 8.12462C32.3582 7.88806 32.5475 7.55686 32.5475 7.13104C32.5948 6.84716 32.4055 6.46865 32.0743 6.23208Z" fill="#1B4773"/>
</svg>
