<svg width="52" height="13" viewBox="0 0 52 13" fill="none" xmlns="http://www.w3.org/2000/svg">
<path d="M51.4675 5.36465L43.3219 0.15141C42.8738 -0.133689 42.2629 -0.011504 41.9371 0.477237C41.7742 0.680879 41.7334 0.965978 41.8149 1.21035C41.8556 1.45472 42.0185 1.69909 42.2629 1.82128L47.5576 5.20174H0V7.19743H47.5169L42.2222 10.5779C41.9778 10.7408 41.8556 10.9444 41.7742 11.1888C41.7334 11.4332 41.7742 11.7183 41.8964 11.9219C42.1 12.207 42.3851 12.3699 42.7517 12.3699C42.9553 12.3699 43.1182 12.3292 43.2811 12.207L51.4268 6.99379C51.7119 6.79014 51.8748 6.50504 51.8748 6.13849C51.9156 5.89412 51.7526 5.56829 51.4675 5.36465Z" fill="#1B4773"/>
</svg>
