<svg width="56" height="53" viewBox="0 0 56 53" fill="none" xmlns="http://www.w3.org/2000/svg">
<g filter="url(#filter0_biii)">
<path d="M26.605 16.773C26.6984 17.2857 27.0413 17.6934 27.4182 18.0064C28.21 18.6639 28.7446 19.9135 28.7446 21.3468C28.7446 22.9924 28.04 24.3957 27.0507 24.939C26.588 25.193 26.1264 25.5445 25.9411 26.08C25.2725 28.0125 24.287 29.6806 23.0819 30.9452L28.919 34.2053C35.2218 37.7255 30.0805 46.7233 22.8794 47.2336C21.3135 47.3445 19.5707 47.4102 17.6387 47.4102C15.7066 47.4102 13.9638 47.3445 12.3979 47.2336C5.19683 46.7233 0.0555177 37.7255 6.35829 34.2053L12.0957 31.0009C10.8663 29.7298 9.86151 28.041 9.18303 26.08C8.99776 25.5445 8.53613 25.193 8.07351 24.939C7.08417 24.3957 6.37961 22.9924 6.37961 21.3468C6.37961 19.9135 6.9142 18.6639 7.70594 18.0064C8.08282 17.6934 8.42581 17.2857 8.51915 16.773C8.52318 16.7509 8.52726 16.7287 8.53137 16.7066C8.57655 16.4636 8.56658 16.2121 8.50205 15.9745C7.87594 13.6696 7.61785 10.9024 8.98374 9.33745C9.75313 8.45594 10.5543 8.10551 11.2995 8.0628C11.6913 8.04035 12.0799 7.90574 12.377 7.62085C13.6054 6.44316 15.3351 5.58984 17.7153 5.58984C23.0226 5.58984 26.2229 10.7968 27.412 14.0138C27.5635 14.4236 27.3328 14.8711 26.9435 14.9658C26.5587 15.0594 26.3303 15.4998 26.4291 15.9239C26.494 16.203 26.5528 16.4861 26.605 16.773Z" fill="url(#paint0_linear)"/>
</g>
<mask id="mask0" mask-type="alpha" maskUnits="userSpaceOnUse" x="10" y="0" width="36" height="53">
<path d="M39.3476 14.1727C39.4658 14.8224 39.9003 15.3392 40.3777 15.7359C41.3805 16.5691 42.0577 18.1527 42.0577 19.9693C42.0577 22.0547 41.1652 23.8332 39.9121 24.5217C39.3261 24.8436 38.7414 25.2891 38.5067 25.9677C37.6598 28.4169 36.4115 30.5309 34.885 32.1336L42.2787 36.2652C50.2649 40.7279 43.7487 52.1302 34.623 52.7766C32.641 52.917 30.4353 53 27.9902 53C25.5452 53 23.3395 52.917 21.3574 52.7766C12.2318 52.1302 5.71552 40.7279 13.7018 36.2652L20.9692 32.2042C19.4118 30.5932 18.1392 28.453 17.2798 25.9677C17.0451 25.2891 16.4603 24.8436 15.8744 24.5217C14.6212 23.8332 13.7288 22.0547 13.7288 19.9693C13.7288 18.1527 14.4059 16.5691 15.4088 15.7359C15.8862 15.3392 16.3206 14.8224 16.4388 14.1727C16.444 14.1447 16.4491 14.1166 16.4543 14.0886C16.5116 13.7806 16.4989 13.4618 16.4172 13.1608C15.6241 10.2397 15.2972 6.73275 17.0273 4.74945C18.0019 3.63228 19.0167 3.18817 19.9606 3.13405C20.4569 3.10559 20.9491 2.935 21.3255 2.57395C22.8814 1.08143 25.0723 0 28.0873 0C34.8099 0 38.8636 6.59894 40.3698 10.6758C40.5617 11.1953 40.2695 11.7624 39.7764 11.8824C39.2889 12.001 38.9996 12.5592 39.1247 13.0966C39.207 13.4503 39.2814 13.8091 39.3476 14.1727Z" fill="#EE9C2D"/>
</mask>
<g mask="url(#mask0)">
<g clip-path="url(#clip0)">
<rect width="157.551" height="174.602" transform="translate(-106.477 -56.4415)" fill="#EE9C2D"/>
<rect x="-106.477" y="-56.4415" width="157.551" height="174.602" fill="#1B4773" style="mix-blend-mode:color"/>
</g>
<path d="M39.3476 14.1727C39.4658 14.8224 39.9003 15.3392 40.3777 15.7359C41.3805 16.5691 42.0577 18.1527 42.0577 19.9693C42.0577 22.0547 41.1652 23.8332 39.9121 24.5217C39.3261 24.8436 38.7414 25.2891 38.5067 25.9677C37.6598 28.4169 36.4115 30.5309 34.885 32.1336L42.2787 36.2652C46.7823 38.7818 49.625 49.5168 49.625 49.5168C49.625 49.5168 43.8281 53 27.9902 53C12.1523 53 6.35547 49.5168 6.35547 49.5168C6.35547 49.5168 9.19812 38.7818 13.7018 36.2652L20.9692 32.2042C19.4118 30.5932 18.1392 28.453 17.2798 25.9677C17.0451 25.2891 16.4603 24.8436 15.8744 24.5217C14.6212 23.8332 13.7288 22.0547 13.7288 19.9693C13.7288 18.1527 14.4059 16.5691 15.4088 15.7359C15.8862 15.3392 16.3206 14.8224 16.4388 14.1727C16.444 14.1447 16.4491 14.1166 16.4543 14.0886C16.5116 13.7806 16.4989 13.4618 16.4172 13.1608C15.6241 10.2397 15.2972 6.73275 17.0273 4.74945C18.0019 3.63228 19.0167 3.18817 19.9606 3.13405C20.4569 3.10559 20.9491 2.935 21.3255 2.57395C22.8814 1.08143 25.0723 0 28.0873 0C34.8099 0 38.8636 6.59894 40.3698 10.6758C40.5617 11.1953 40.2695 11.7624 39.7764 11.8824C39.2889 12.001 38.9996 12.5592 39.1247 13.0966C39.207 13.4503 39.2814 13.8091 39.3476 14.1727Z" fill="url(#paint1_linear)"/>
<path d="M39.3476 14.1727C39.4658 14.8224 39.9003 15.3392 40.3777 15.7359C41.3805 16.5691 42.0577 18.1527 42.0577 19.9693C42.0577 22.0547 41.1652 23.8332 39.9121 24.5217C39.3261 24.8436 38.7414 25.2891 38.5067 25.9677C37.6598 28.4169 36.4115 30.5309 34.885 32.1336L42.2787 36.2652C46.7823 38.7818 49.625 49.5168 49.625 49.5168C49.625 49.5168 43.8281 53 27.9902 53C12.1523 53 6.35547 49.5168 6.35547 49.5168C6.35547 49.5168 9.19812 38.7818 13.7018 36.2652L20.9692 32.2042C19.4118 30.5932 18.1392 28.453 17.2798 25.9677C17.0451 25.2891 16.4603 24.8436 15.8744 24.5217C14.6212 23.8332 13.7288 22.0547 13.7288 19.9693C13.7288 18.1527 14.4059 16.5691 15.4088 15.7359C15.8862 15.3392 16.3206 14.8224 16.4388 14.1727C16.444 14.1447 16.4491 14.1166 16.4543 14.0886C16.5116 13.7806 16.4989 13.4618 16.4172 13.1608C15.6241 10.2397 15.2972 6.73275 17.0273 4.74945C18.0019 3.63228 19.0167 3.18817 19.9606 3.13405C20.4569 3.10559 20.9491 2.935 21.3255 2.57395C22.8814 1.08143 25.0723 0 28.0873 0C34.8099 0 38.8636 6.59894 40.3698 10.6758C40.5617 11.1953 40.2695 11.7624 39.7764 11.8824C39.2889 12.001 38.9996 12.5592 39.1247 13.0966C39.207 13.4503 39.2814 13.8091 39.3476 14.1727Z" fill="url(#paint2_radial)"/>
</g>
<g filter="url(#filter1_biii)">
<path d="M47.7222 16.773C47.8155 17.2857 48.1585 17.6934 48.5354 18.0064C49.3271 18.6639 49.8617 19.9135 49.8617 21.3468C49.8617 22.9924 49.1572 24.3957 48.1678 24.939C47.7052 25.193 47.2436 25.5445 47.0583 26.08C46.3897 28.0125 45.4042 29.6806 44.1991 30.9452L50.0362 34.2053C56.339 37.7255 51.1977 46.7233 43.9966 47.2336C42.4307 47.3445 40.6879 47.4102 38.7559 47.4102C36.8238 47.4102 35.081 47.3445 33.5151 47.2336C26.314 46.7233 21.1727 37.7255 27.4755 34.2053L33.2129 31.0009C31.9834 29.7298 30.9787 28.041 30.3002 26.08C30.1149 25.5445 29.6533 25.193 29.1907 24.939C28.2014 24.3957 27.4968 22.9924 27.4968 21.3468C27.4968 19.9135 28.0314 18.6639 28.8231 18.0064C29.2 17.6934 29.543 17.2857 29.6363 16.773C29.6404 16.7509 29.6444 16.7287 29.6486 16.7066C29.6937 16.4636 29.6838 16.2121 29.6192 15.9745C28.9931 13.6696 28.735 10.9024 30.1009 9.33745C30.8703 8.45594 31.6715 8.10551 32.4167 8.0628C32.8085 8.04035 33.1971 7.90574 33.4942 7.62085C34.7226 6.44316 36.4523 5.58984 38.8325 5.58984C44.1398 5.58984 47.3401 10.7968 48.5292 14.0138C48.6807 14.4236 48.45 14.8711 48.0607 14.9658C47.6759 15.0594 47.4475 15.4998 47.5462 15.9239C47.6112 16.203 47.67 16.4861 47.7222 16.773Z" fill="url(#paint3_linear)"/>
</g>
<defs>
<filter id="filter0_biii" x="-6.48438" y="-4.41016" width="48.2465" height="61.8203" filterUnits="userSpaceOnUse" color-interpolation-filters="sRGB">
<feFlood flood-opacity="0" result="BackgroundImageFix"/>
<feGaussianBlur in="BackgroundImage" stdDeviation="5"/>
<feComposite in2="SourceAlpha" operator="in" result="effect1_backgroundBlur"/>
<feBlend mode="normal" in="SourceGraphic" in2="effect1_backgroundBlur" result="shape"/>
<feColorMatrix in="SourceAlpha" type="matrix" values="0 0 0 0 0 0 0 0 0 0 0 0 0 0 0 0 0 0 127 0" result="hardAlpha"/>
<feOffset dy="-4"/>
<feGaussianBlur stdDeviation="0.5"/>
<feComposite in2="hardAlpha" operator="arithmetic" k2="-1" k3="1"/>
<feColorMatrix type="matrix" values="0 0 0 0 0.920833 0 0 0 0 0.920833 0 0 0 0 0.920833 0 0 0 0.1 0"/>
<feBlend mode="normal" in2="shape" result="effect2_innerShadow"/>
<feColorMatrix in="SourceAlpha" type="matrix" values="0 0 0 0 0 0 0 0 0 0 0 0 0 0 0 0 0 0 127 0" result="hardAlpha"/>
<feOffset dx="-1"/>
<feGaussianBlur stdDeviation="0.5"/>
<feComposite in2="hardAlpha" operator="arithmetic" k2="-1" k3="1"/>
<feColorMatrix type="matrix" values="0 0 0 0 0.920833 0 0 0 0 0.920833 0 0 0 0 0.920833 0 0 0 0.1 0"/>
<feBlend mode="normal" in2="effect2_innerShadow" result="effect3_innerShadow"/>
<feColorMatrix in="SourceAlpha" type="matrix" values="0 0 0 0 0 0 0 0 0 0 0 0 0 0 0 0 0 0 127 0" result="hardAlpha"/>
<feOffset dx="1"/>
<feGaussianBlur stdDeviation="0.5"/>
<feComposite in2="hardAlpha" operator="arithmetic" k2="-1" k3="1"/>
<feColorMatrix type="matrix" values="0 0 0 0 0.920833 0 0 0 0 0.920833 0 0 0 0 0.920833 0 0 0 0.1 0"/>
<feBlend mode="normal" in2="effect3_innerShadow" result="effect4_innerShadow"/>
</filter>
<filter id="filter1_biii" x="14.6328" y="-4.41016" width="48.2465" height="61.8203" filterUnits="userSpaceOnUse" color-interpolation-filters="sRGB">
<feFlood flood-opacity="0" result="BackgroundImageFix"/>
<feGaussianBlur in="BackgroundImage" stdDeviation="5"/>
<feComposite in2="SourceAlpha" operator="in" result="effect1_backgroundBlur"/>
<feBlend mode="normal" in="SourceGraphic" in2="effect1_backgroundBlur" result="shape"/>
<feColorMatrix in="SourceAlpha" type="matrix" values="0 0 0 0 0 0 0 0 0 0 0 0 0 0 0 0 0 0 127 0" result="hardAlpha"/>
<feOffset dy="-4"/>
<feGaussianBlur stdDeviation="0.5"/>
<feComposite in2="hardAlpha" operator="arithmetic" k2="-1" k3="1"/>
<feColorMatrix type="matrix" values="0 0 0 0 0.920833 0 0 0 0 0.920833 0 0 0 0 0.920833 0 0 0 0.1 0"/>
<feBlend mode="normal" in2="shape" result="effect2_innerShadow"/>
<feColorMatrix in="SourceAlpha" type="matrix" values="0 0 0 0 0 0 0 0 0 0 0 0 0 0 0 0 0 0 127 0" result="hardAlpha"/>
<feOffset dx="-1"/>
<feGaussianBlur stdDeviation="0.5"/>
<feComposite in2="hardAlpha" operator="arithmetic" k2="-1" k3="1"/>
<feColorMatrix type="matrix" values="0 0 0 0 0.920833 0 0 0 0 0.920833 0 0 0 0 0.920833 0 0 0 0.1 0"/>
<feBlend mode="normal" in2="effect2_innerShadow" result="effect3_innerShadow"/>
<feColorMatrix in="SourceAlpha" type="matrix" values="0 0 0 0 0 0 0 0 0 0 0 0 0 0 0 0 0 0 127 0" result="hardAlpha"/>
<feOffset dx="1"/>
<feGaussianBlur stdDeviation="0.5"/>
<feComposite in2="hardAlpha" operator="arithmetic" k2="-1" k3="1"/>
<feColorMatrix type="matrix" values="0 0 0 0 0.920833 0 0 0 0 0.920833 0 0 0 0 0.920833 0 0 0 0.1 0"/>
<feBlend mode="normal" in2="effect3_innerShadow" result="effect4_innerShadow"/>
</filter>
<linearGradient id="paint0_linear" x1="17.6387" y1="5.58984" x2="17.6387" y2="47.4102" gradientUnits="userSpaceOnUse">
<stop stop-color="#1B4773" stop-opacity="0.25"/>
<stop offset="1" stop-color="#1B4773" stop-opacity="0.25"/>
</linearGradient>
<linearGradient id="paint1_linear" x1="27.9921" y1="-0.253367" x2="27.9921" y2="52.5843" gradientUnits="userSpaceOnUse">
<stop stop-color="white" stop-opacity="0.4"/>
<stop offset="0.833333" stop-color="white" stop-opacity="0"/>
<stop offset="1" stop-color="white" stop-opacity="0.3"/>
</linearGradient>
<radialGradient id="paint2_radial" cx="0" cy="0" r="1" gradientUnits="userSpaceOnUse" gradientTransform="translate(6.35547 6.95811) scale(33.1798 63.0773)">
<stop stop-color="white" stop-opacity="0.7"/>
<stop offset="1" stop-color="white" stop-opacity="0"/>
</radialGradient>
<linearGradient id="paint3_linear" x1="38.7559" y1="5.58984" x2="38.7559" y2="47.4102" gradientUnits="userSpaceOnUse">
<stop stop-color="#1B4773"/>
<stop offset="1" stop-color="#1B4773"/>
</linearGradient>
<clipPath id="clip0">
<rect width="157.551" height="174.602" fill="white" transform="translate(-106.477 -56.4415)"/>
</clipPath>
</defs>
</svg>
