<svg width="42" height="47" viewBox="0 0 42 47" fill="none" xmlns="http://www.w3.org/2000/svg">
<path d="M0.744629 38.0041V34.6994L2.8923 24.5238C3.67323 20.8238 6.93829 18.1759 10.7199 18.1759H31.5878C35.3375 18.1759 38.5841 20.7804 39.3973 24.4408L41.6765 34.6994V38.0041H0.744629Z" fill="#2B77C4" fill-opacity="0.65"/>
<g opacity="0.85">
<g filter="url(#filter0_biii)">
<path d="M16.0938 35.0927V4.38555C16.0938 1.96348 18.0572 0 20.4793 0V0C22.9014 0 24.8649 1.96348 24.8649 4.38556V35.0927H16.0938Z" fill="url(#paint0_linear)"/>
</g>
<g filter="url(#filter1_biii)">
<path d="M33.6351 38.7482C31.213 38.7482 29.2495 36.7847 29.2495 34.3626V8.04107C29.2495 5.619 31.213 3.65552 33.6351 3.65552V3.65552C36.0571 3.65552 38.0206 5.619 38.0206 8.04107V34.3626C38.0206 36.7847 36.0571 38.7482 33.6351 38.7482V38.7482Z" fill="url(#paint1_linear)"/>
</g>
<g filter="url(#filter2_biii)">
<path d="M3.66748 42.4035V11.6965C3.66748 9.27445 5.63096 7.31097 8.05304 7.31097V7.31097C10.4751 7.31097 12.4386 9.27445 12.4386 11.6965V42.4035H3.66748Z" fill="url(#paint2_linear)"/>
</g>
</g>
<g filter="url(#filter3_iii)">
<mask id="mask0" mask-type="alpha" maskUnits="userSpaceOnUse" x="0" y="33" width="42" height="14">
<path d="M7.59764 47.0001C3.81282 47.0001 0.744629 43.9319 0.744629 40.147V40.147C0.744629 36.3659 3.80705 33.2993 7.58815 33.294L11.2722 33.2889C12.923 33.2866 14.4658 34.1092 15.384 35.4811V35.4811C16.3009 36.851 17.8407 37.6733 19.4891 37.6733H22.9125C24.5722 37.6733 26.1216 36.8421 27.0395 35.4592V35.4592C27.9561 34.0784 29.5024 33.2474 31.1597 33.2451L34.787 33.2401C38.5904 33.2349 41.6765 36.3167 41.6765 40.1201V40.1201C41.6765 43.9198 38.5962 47.0001 34.7965 47.0001H7.59764Z" fill="white"/>
</mask>
<g mask="url(#mask0)">
<g clip-path="url(#clip0)">
<rect width="139.682" height="139.682" transform="translate(-75.98 -44.6392)" fill="#EE9C2D"/>
<rect x="-75.98" y="-44.6392" width="139.682" height="139.682" fill="#1B4773" style="mix-blend-mode:color"/>
</g>
<path d="M7.59764 47.0001C3.81282 47.0001 0.744629 43.9319 0.744629 40.147V40.147C0.744629 36.3659 3.80705 33.2993 7.58815 33.294L11.2722 33.2889C12.923 33.2866 14.4658 34.1092 15.384 35.4811V35.4811C16.3009 36.851 17.8407 37.6733 19.4891 37.6733H22.9125C24.5722 37.6733 26.1216 36.8421 27.0395 35.4592V35.4592C27.9561 34.0784 29.5024 33.2474 31.1597 33.2451L34.787 33.2401C38.5904 33.2349 41.6765 36.3167 41.6765 40.1201V40.1201C41.6765 43.9198 38.5962 47.0001 34.7965 47.0001H7.59764Z" fill="url(#paint3_linear)"/>
<path d="M7.59764 47.0001C3.81282 47.0001 0.744629 43.9319 0.744629 40.147V40.147C0.744629 36.3659 3.80705 33.2993 7.58815 33.294L11.2722 33.2889C12.923 33.2866 14.4658 34.1092 15.384 35.4811V35.4811C16.3009 36.851 17.8407 37.6733 19.4891 37.6733H22.9125C24.5722 37.6733 26.1216 36.8421 27.0395 35.4592V35.4592C27.9561 34.0784 29.5024 33.2474 31.1597 33.2451L34.787 33.2401C38.5904 33.2349 41.6765 36.3167 41.6765 40.1201V40.1201C41.6765 43.9198 38.5962 47.0001 34.7965 47.0001H7.59764Z" fill="url(#paint4_radial)"/>
</g>
</g>
<defs>
<filter id="filter0_biii" x="6.09375" y="-10" width="28.7711" height="55.0927" filterUnits="userSpaceOnUse" color-interpolation-filters="sRGB">
<feFlood flood-opacity="0" result="BackgroundImageFix"/>
<feGaussianBlur in="BackgroundImage" stdDeviation="5"/>
<feComposite in2="SourceAlpha" operator="in" result="effect1_backgroundBlur"/>
<feBlend mode="normal" in="SourceGraphic" in2="effect1_backgroundBlur" result="shape"/>
<feColorMatrix in="SourceAlpha" type="matrix" values="0 0 0 0 0 0 0 0 0 0 0 0 0 0 0 0 0 0 127 0" result="hardAlpha"/>
<feOffset dy="-4"/>
<feGaussianBlur stdDeviation="0.5"/>
<feComposite in2="hardAlpha" operator="arithmetic" k2="-1" k3="1"/>
<feColorMatrix type="matrix" values="0 0 0 0 0.920833 0 0 0 0 0.920833 0 0 0 0 0.920833 0 0 0 0.1 0"/>
<feBlend mode="normal" in2="shape" result="effect2_innerShadow"/>
<feColorMatrix in="SourceAlpha" type="matrix" values="0 0 0 0 0 0 0 0 0 0 0 0 0 0 0 0 0 0 127 0" result="hardAlpha"/>
<feOffset dx="-1"/>
<feGaussianBlur stdDeviation="0.5"/>
<feComposite in2="hardAlpha" operator="arithmetic" k2="-1" k3="1"/>
<feColorMatrix type="matrix" values="0 0 0 0 0.920833 0 0 0 0 0.920833 0 0 0 0 0.920833 0 0 0 0.1 0"/>
<feBlend mode="normal" in2="effect2_innerShadow" result="effect3_innerShadow"/>
<feColorMatrix in="SourceAlpha" type="matrix" values="0 0 0 0 0 0 0 0 0 0 0 0 0 0 0 0 0 0 127 0" result="hardAlpha"/>
<feOffset dx="1"/>
<feGaussianBlur stdDeviation="0.5"/>
<feComposite in2="hardAlpha" operator="arithmetic" k2="-1" k3="1"/>
<feColorMatrix type="matrix" values="0 0 0 0 0.920833 0 0 0 0 0.920833 0 0 0 0 0.920833 0 0 0 0.1 0"/>
<feBlend mode="normal" in2="effect3_innerShadow" result="effect4_innerShadow"/>
</filter>
<filter id="filter1_biii" x="19.2495" y="-6.34448" width="28.7711" height="55.0927" filterUnits="userSpaceOnUse" color-interpolation-filters="sRGB">
<feFlood flood-opacity="0" result="BackgroundImageFix"/>
<feGaussianBlur in="BackgroundImage" stdDeviation="5"/>
<feComposite in2="SourceAlpha" operator="in" result="effect1_backgroundBlur"/>
<feBlend mode="normal" in="SourceGraphic" in2="effect1_backgroundBlur" result="shape"/>
<feColorMatrix in="SourceAlpha" type="matrix" values="0 0 0 0 0 0 0 0 0 0 0 0 0 0 0 0 0 0 127 0" result="hardAlpha"/>
<feOffset dy="-4"/>
<feGaussianBlur stdDeviation="0.5"/>
<feComposite in2="hardAlpha" operator="arithmetic" k2="-1" k3="1"/>
<feColorMatrix type="matrix" values="0 0 0 0 0.920833 0 0 0 0 0.920833 0 0 0 0 0.920833 0 0 0 0.1 0"/>
<feBlend mode="normal" in2="shape" result="effect2_innerShadow"/>
<feColorMatrix in="SourceAlpha" type="matrix" values="0 0 0 0 0 0 0 0 0 0 0 0 0 0 0 0 0 0 127 0" result="hardAlpha"/>
<feOffset dx="-1"/>
<feGaussianBlur stdDeviation="0.5"/>
<feComposite in2="hardAlpha" operator="arithmetic" k2="-1" k3="1"/>
<feColorMatrix type="matrix" values="0 0 0 0 0.920833 0 0 0 0 0.920833 0 0 0 0 0.920833 0 0 0 0.1 0"/>
<feBlend mode="normal" in2="effect2_innerShadow" result="effect3_innerShadow"/>
<feColorMatrix in="SourceAlpha" type="matrix" values="0 0 0 0 0 0 0 0 0 0 0 0 0 0 0 0 0 0 127 0" result="hardAlpha"/>
<feOffset dx="1"/>
<feGaussianBlur stdDeviation="0.5"/>
<feComposite in2="hardAlpha" operator="arithmetic" k2="-1" k3="1"/>
<feColorMatrix type="matrix" values="0 0 0 0 0.920833 0 0 0 0 0.920833 0 0 0 0 0.920833 0 0 0 0.1 0"/>
<feBlend mode="normal" in2="effect3_innerShadow" result="effect4_innerShadow"/>
</filter>
<filter id="filter2_biii" x="-6.33252" y="-2.68903" width="28.7711" height="55.0925" filterUnits="userSpaceOnUse" color-interpolation-filters="sRGB">
<feFlood flood-opacity="0" result="BackgroundImageFix"/>
<feGaussianBlur in="BackgroundImage" stdDeviation="5"/>
<feComposite in2="SourceAlpha" operator="in" result="effect1_backgroundBlur"/>
<feBlend mode="normal" in="SourceGraphic" in2="effect1_backgroundBlur" result="shape"/>
<feColorMatrix in="SourceAlpha" type="matrix" values="0 0 0 0 0 0 0 0 0 0 0 0 0 0 0 0 0 0 127 0" result="hardAlpha"/>
<feOffset dy="-4"/>
<feGaussianBlur stdDeviation="0.5"/>
<feComposite in2="hardAlpha" operator="arithmetic" k2="-1" k3="1"/>
<feColorMatrix type="matrix" values="0 0 0 0 0.920833 0 0 0 0 0.920833 0 0 0 0 0.920833 0 0 0 0.1 0"/>
<feBlend mode="normal" in2="shape" result="effect2_innerShadow"/>
<feColorMatrix in="SourceAlpha" type="matrix" values="0 0 0 0 0 0 0 0 0 0 0 0 0 0 0 0 0 0 127 0" result="hardAlpha"/>
<feOffset dx="-1"/>
<feGaussianBlur stdDeviation="0.5"/>
<feComposite in2="hardAlpha" operator="arithmetic" k2="-1" k3="1"/>
<feColorMatrix type="matrix" values="0 0 0 0 0.920833 0 0 0 0 0.920833 0 0 0 0 0.920833 0 0 0 0.1 0"/>
<feBlend mode="normal" in2="effect2_innerShadow" result="effect3_innerShadow"/>
<feColorMatrix in="SourceAlpha" type="matrix" values="0 0 0 0 0 0 0 0 0 0 0 0 0 0 0 0 0 0 127 0" result="hardAlpha"/>
<feOffset dx="1"/>
<feGaussianBlur stdDeviation="0.5"/>
<feComposite in2="hardAlpha" operator="arithmetic" k2="-1" k3="1"/>
<feColorMatrix type="matrix" values="0 0 0 0 0.920833 0 0 0 0 0.920833 0 0 0 0 0.920833 0 0 0 0.1 0"/>
<feBlend mode="normal" in2="effect3_innerShadow" result="effect4_innerShadow"/>
</filter>
<filter id="filter3_iii" x="-0.255371" y="32.2401" width="42.9319" height="14.7599" filterUnits="userSpaceOnUse" color-interpolation-filters="sRGB">
<feFlood flood-opacity="0" result="BackgroundImageFix"/>
<feBlend mode="normal" in="SourceGraphic" in2="BackgroundImageFix" result="shape"/>
<feColorMatrix in="SourceAlpha" type="matrix" values="0 0 0 0 0 0 0 0 0 0 0 0 0 0 0 0 0 0 127 0" result="hardAlpha"/>
<feOffset dy="-4"/>
<feGaussianBlur stdDeviation="0.5"/>
<feComposite in2="hardAlpha" operator="arithmetic" k2="-1" k3="1"/>
<feColorMatrix type="matrix" values="0 0 0 0 0 0 0 0 0 0 0 0 0 0 0 0 0 0 0.4 0"/>
<feBlend mode="normal" in2="shape" result="effect1_innerShadow"/>
<feColorMatrix in="SourceAlpha" type="matrix" values="0 0 0 0 0 0 0 0 0 0 0 0 0 0 0 0 0 0 127 0" result="hardAlpha"/>
<feOffset dx="-1"/>
<feGaussianBlur stdDeviation="0.5"/>
<feComposite in2="hardAlpha" operator="arithmetic" k2="-1" k3="1"/>
<feColorMatrix type="matrix" values="0 0 0 0 1 0 0 0 0 1 0 0 0 0 1 0 0 0 0.3 0"/>
<feBlend mode="normal" in2="effect1_innerShadow" result="effect2_innerShadow"/>
<feColorMatrix in="SourceAlpha" type="matrix" values="0 0 0 0 0 0 0 0 0 0 0 0 0 0 0 0 0 0 127 0" result="hardAlpha"/>
<feOffset dx="1"/>
<feGaussianBlur stdDeviation="0.5"/>
<feComposite in2="hardAlpha" operator="arithmetic" k2="-1" k3="1"/>
<feColorMatrix type="matrix" values="0 0 0 0 1 0 0 0 0 1 0 0 0 0 1 0 0 0 0.3 0"/>
<feBlend mode="normal" in2="effect2_innerShadow" result="effect3_innerShadow"/>
</filter>
<linearGradient id="paint0_linear" x1="20.4793" y1="0" x2="20.4793" y2="35.0927" gradientUnits="userSpaceOnUse">
<stop stop-color="#1B4773" stop-opacity="0.15"/>
<stop offset="1" stop-color="#1B4773" stop-opacity="0.15"/>
</linearGradient>
<linearGradient id="paint1_linear" x1="33.6351" y1="3.65552" x2="33.6351" y2="38.7482" gradientUnits="userSpaceOnUse">
<stop stop-color="#1B4773" stop-opacity="0.15"/>
<stop offset="1" stop-color="#1B4773"/>
</linearGradient>
<linearGradient id="paint2_linear" x1="8.05304" y1="7.31097" x2="8.05304" y2="42.4035" gradientUnits="userSpaceOnUse">
<stop stop-color="#1B4773" stop-opacity="0.15"/>
<stop offset="1" stop-color="#1B4773" stop-opacity="0.2"/>
</linearGradient>
<linearGradient id="paint3_linear" x1="21.2124" y1="33.1648" x2="21.2124" y2="46.892" gradientUnits="userSpaceOnUse">
<stop stop-color="white" stop-opacity="0.4"/>
<stop offset="0.833333" stop-color="white" stop-opacity="0"/>
<stop offset="1" stop-color="white" stop-opacity="0.3"/>
</linearGradient>
<radialGradient id="paint4_radial" cx="0" cy="0" r="1" gradientUnits="userSpaceOnUse" gradientTransform="translate(0.744629 35.0383) scale(31.3872 16.3876)">
<stop stop-color="white" stop-opacity="0.7"/>
<stop offset="1" stop-color="white" stop-opacity="0"/>
</radialGradient>
<clipPath id="clip0">
<rect width="139.682" height="139.682" fill="white" transform="translate(-75.98 -44.6392)"/>
</clipPath>
</defs>
</svg>
