<svg width="52" height="47" viewBox="0 0 52 47" fill="none" xmlns="http://www.w3.org/2000/svg">
<g filter="url(#filter0_biii)">
<path d="M48.93 26.0369L51.2392 26.561C51.4566 26.6103 51.6495 26.7238 51.7873 26.8835C51.9252 27.0432 52 27.2399 52 27.4425V28.9208C51.9993 29.1228 51.9241 29.3189 51.7863 29.478C51.6485 29.6371 51.456 29.7501 51.2392 29.7993L48.9266 30.3203C48.8242 30.5952 48.701 30.8634 48.5579 31.1231L49.7846 32.974C49.9005 33.1479 49.9486 33.3519 49.9212 33.5534C49.8939 33.7549 49.7927 33.9423 49.6338 34.0857L48.4775 35.1308C48.319 35.2738 48.1123 35.3648 47.8901 35.3895C47.6679 35.4142 47.4429 35.3711 47.2508 35.2672L45.203 34.1584C44.9169 34.2885 44.6212 34.4008 44.3182 34.4947L43.7384 36.5819C43.6839 36.7783 43.5583 36.9527 43.3816 37.0773C43.2049 37.2019 42.9872 37.2695 42.7631 37.2695H41.1275C40.9029 37.2702 40.6844 37.2029 40.507 37.0782C40.3296 36.9536 40.2035 36.7788 40.1489 36.5819L39.5724 34.4917C39.2694 34.399 38.9737 34.2877 38.6876 34.1584L36.6398 35.2672C36.4477 35.3711 36.2227 35.4142 36.0005 35.3895C35.7783 35.3648 35.5716 35.2738 35.4131 35.1308L34.2568 34.0857C34.0979 33.9423 33.9967 33.7549 33.9694 33.5534C33.9421 33.3519 33.9902 33.1479 34.106 32.974L35.3327 31.1261C35.1889 30.8674 35.0646 30.6002 34.9607 30.3264L32.6514 29.8023C32.4341 29.753 32.2411 29.6395 32.1033 29.4798C31.9655 29.3201 31.8906 29.1233 31.8906 28.9208V27.4425C31.8914 27.2405 31.9666 27.0444 32.1043 26.8853C32.2421 26.7262 32.4346 26.6132 32.6514 26.564L34.964 26.043C35.0664 25.7681 35.1896 25.4998 35.3327 25.2402L34.106 23.3893C33.9902 23.2154 33.9421 23.0114 33.9694 22.8099C33.9967 22.6084 34.0979 22.421 34.2568 22.2775L35.4165 21.2324C35.575 21.0895 35.7817 20.9985 36.0039 20.9738C36.2261 20.9491 36.4511 20.9922 36.6431 21.0961L38.6876 22.2048C38.9738 22.0748 39.2694 21.9624 39.5724 21.8686L40.1522 19.7814C40.2068 19.5849 40.3323 19.4106 40.509 19.286C40.6857 19.1614 40.9034 19.0937 41.1275 19.0938H42.7631C42.9878 19.0931 43.2062 19.1604 43.3836 19.2851C43.561 19.4097 43.6871 19.5844 43.7418 19.7814L44.3182 21.8716C44.6212 21.9643 44.9169 22.0756 45.203 22.2048L47.2508 21.0961C47.4429 20.9922 47.6679 20.9491 47.8901 20.9738C48.1123 20.9985 48.319 21.0895 48.4775 21.2324L49.6338 22.2745C49.7927 22.418 49.8939 22.6054 49.9212 22.8069C49.9486 23.0084 49.9005 23.2124 49.7846 23.3863L48.5579 25.2372C48.7018 25.4959 48.8261 25.763 48.93 26.0369Z" fill="url(#paint0_linear)"/>
</g>
<g filter="url(#filter1_iii)">
<mask id="mask0" mask-type="alpha" maskUnits="userSpaceOnUse" x="0" y="9" width="42" height="38">
<path fill-rule="evenodd" clip-rule="evenodd" d="M40.0652 24.8257L35.2835 23.7405C35.0683 23.1734 34.811 22.6202 34.5131 22.0845L37.0532 18.2518C37.2931 17.8917 37.3927 17.4693 37.3361 17.0521C37.2795 16.6349 37.07 16.2468 36.7409 15.9497L34.3466 13.7919C34.0184 13.4959 33.5903 13.3075 33.1302 13.2563C32.6701 13.2052 32.2042 13.2943 31.8065 13.5096L27.5661 15.8054C26.9736 15.5378 26.3614 15.3073 25.7339 15.1154L24.5402 10.7872C24.427 10.3793 24.1659 10.0175 23.7986 9.75941C23.4313 9.50132 22.9789 9.36187 22.5137 9.36329H19.1269C18.6629 9.36327 18.2121 9.50337 17.8462 9.76135C17.4803 10.0193 17.2203 10.3804 17.1074 10.7872L15.9067 15.1092C15.2793 15.3035 14.6671 15.5361 14.0745 15.8054L9.84107 13.5096C9.44334 13.2943 8.9775 13.2052 8.51738 13.2563C8.05726 13.3075 7.62918 13.4959 7.30099 13.7919L4.89971 15.956C4.57066 16.2531 4.36113 16.6411 4.30453 17.0584C4.24793 17.4756 4.34751 17.898 4.58741 18.2581L7.12749 22.0908C6.83127 22.6284 6.5762 23.1838 6.36408 23.7531L1.5754 24.832C1.12645 24.9338 0.72783 25.1679 0.442529 25.4973C0.157228 25.8268 0.00151701 26.2327 3.41504e-09 26.6511V29.7122C-2.65656e-05 30.1316 0.154978 30.539 0.4404 30.8698C0.725822 31.2005 1.1253 31.4355 1.5754 31.5376L6.35714 32.6228C6.57229 33.1899 6.82966 33.7431 7.12749 34.2788L4.58741 38.1052C4.34751 38.4653 4.24793 38.8877 4.30453 39.3049C4.36113 39.7221 4.57066 40.1102 4.89971 40.4073L7.29405 42.5714C7.62224 42.8673 8.05032 43.0558 8.51044 43.1069C8.97056 43.1581 9.4364 43.0689 9.83413 42.8537L14.0745 40.5578C14.6671 40.8255 15.2792 41.056 15.9067 41.2478L17.1004 45.5761C17.2136 45.9839 17.4747 46.3458 17.842 46.6039C18.2093 46.862 18.6617 47.0014 19.1269 47H22.5137C22.9778 47 23.4285 46.8599 23.7944 46.6019C24.1603 46.344 24.4204 45.9829 24.5333 45.5761L25.7339 41.2541C26.3614 41.0598 26.9735 40.8272 27.5661 40.5578L31.8065 42.8537C32.2042 43.0689 32.6701 43.1581 33.1302 43.1069C33.5903 43.0558 34.0184 42.8673 34.3466 42.5714L36.7409 40.4073C37.07 40.1102 37.2795 39.7221 37.3361 39.3049C37.3927 38.8877 37.2931 38.4653 37.0532 38.1052L34.5131 34.2725C34.8094 33.7348 35.0644 33.1794 35.2766 32.6102L40.0652 31.5313C40.5142 31.4295 40.9128 31.1954 41.1981 30.866C41.4834 30.5365 41.6391 30.1306 41.6406 29.7122V26.6511C41.6407 26.2316 41.4857 25.8242 41.2002 25.4935C40.9148 25.1628 40.5153 24.9278 40.0652 24.8257Z" fill="#EE9C2D"/>
</mask>
<g mask="url(#mask0)">
<rect width="761" height="761" transform="translate(-278 -227)" fill="#EE9C2D"/>
<rect x="-278" y="-227" width="761" height="761" fill="#1B4773" style="mix-blend-mode:color"/>
<path d="M35.2835 23.7405L40.0652 24.8257C40.5153 24.9278 40.9148 25.1628 41.2002 25.4935C41.4857 25.8242 41.6407 26.2316 41.6406 26.6511V29.7122C41.6391 30.1306 41.4834 30.5365 41.1981 30.866C40.9128 31.1954 40.5142 31.4295 40.0652 31.5313L35.2766 32.6102C35.0644 33.1794 34.8094 33.7348 34.5131 34.2725L37.0532 38.1052C37.2931 38.4653 37.3927 38.8877 37.3361 39.3049C37.2795 39.7221 37.07 40.1102 36.7409 40.4073L34.3466 42.5714C34.0184 42.8673 33.5903 43.0558 33.1302 43.1069C32.6701 43.1581 32.2042 43.0689 31.8065 42.8537L27.5661 40.5578C26.9735 40.8272 26.3614 41.0598 25.7339 41.2541L24.5333 45.5761C24.4204 45.9829 24.1603 46.344 23.7944 46.6019C23.4285 46.8599 22.9778 47 22.5137 47H19.1269C18.6617 47.0014 18.2093 46.862 17.842 46.6039C17.4747 46.3458 17.2136 45.9839 17.1004 45.5761L15.9067 41.2478C15.2792 41.056 14.6671 40.8255 14.0745 40.5578L9.83413 42.8537C9.4364 43.0689 8.97056 43.1581 8.51044 43.1069C8.05032 43.0558 7.62224 42.8673 7.29405 42.5714L4.89971 40.4073C4.57066 40.1102 4.36113 39.7221 4.30453 39.3049C4.24793 38.8877 4.34751 38.4653 4.58741 38.1052L7.12749 34.2788C6.82966 33.7431 6.57229 33.1899 6.35714 32.6228L1.5754 31.5376C1.1253 31.4355 0.725822 31.2005 0.4404 30.8698C0.154978 30.539 -2.65752e-05 30.1316 0 29.7122V26.6511C0.001517 26.2327 0.157228 25.8268 0.442529 25.4973C0.72783 25.1679 1.12645 24.9338 1.5754 24.832L6.36408 23.7531C6.5762 23.1838 6.83127 22.6284 7.12749 22.0908L4.58741 18.2581C4.34751 17.898 4.24793 17.4756 4.30453 17.0584C4.36113 16.6411 4.57066 16.2531 4.89971 15.956L7.30099 13.7919C7.62918 13.4959 8.05726 13.3075 8.51738 13.2563C8.9775 13.2052 9.44334 13.2943 9.84107 13.5096L14.0745 15.8054C14.6671 15.5361 15.2793 15.3035 15.9067 15.1092L17.1074 10.7872C17.2203 10.3804 17.4803 10.0193 17.8462 9.76135C18.2121 9.50337 18.6629 9.36327 19.1269 9.36329H22.5137C22.9789 9.36187 23.4313 9.50132 23.7986 9.75941C24.1659 10.0175 24.427 10.3793 24.5402 10.7872L25.7339 15.1154C26.3614 15.3073 26.9736 15.5378 27.5661 15.8054L31.8065 13.5096C32.2042 13.2943 32.6701 13.2052 33.1302 13.2563C33.5903 13.3075 34.0184 13.4959 34.3466 13.7919L36.7409 15.9497C37.07 16.2468 37.2795 16.6349 37.3361 17.0521C37.3927 17.4693 37.2931 17.8917 37.0532 18.2518L34.5131 22.0845C34.811 22.6202 35.0683 23.1734 35.2835 23.7405Z" fill="url(#paint1_linear)"/>
<path d="M35.2835 23.7405L40.0652 24.8257C40.5153 24.9278 40.9148 25.1628 41.2002 25.4935C41.4857 25.8242 41.6407 26.2316 41.6406 26.6511V29.7122C41.6391 30.1306 41.4834 30.5365 41.1981 30.866C40.9128 31.1954 40.5142 31.4295 40.0652 31.5313L35.2766 32.6102C35.0644 33.1794 34.8094 33.7348 34.5131 34.2725L37.0532 38.1052C37.2931 38.4653 37.3927 38.8877 37.3361 39.3049C37.2795 39.7221 37.07 40.1102 36.7409 40.4073L34.3466 42.5714C34.0184 42.8673 33.5903 43.0558 33.1302 43.1069C32.6701 43.1581 32.2042 43.0689 31.8065 42.8537L27.5661 40.5578C26.9735 40.8272 26.3614 41.0598 25.7339 41.2541L24.5333 45.5761C24.4204 45.9829 24.1603 46.344 23.7944 46.6019C23.4285 46.8599 22.9778 47 22.5137 47H19.1269C18.6617 47.0014 18.2093 46.862 17.842 46.6039C17.4747 46.3458 17.2136 45.9839 17.1004 45.5761L15.9067 41.2478C15.2792 41.056 14.6671 40.8255 14.0745 40.5578L9.83413 42.8537C9.4364 43.0689 8.97056 43.1581 8.51044 43.1069C8.05032 43.0558 7.62224 42.8673 7.29405 42.5714L4.89971 40.4073C4.57066 40.1102 4.36113 39.7221 4.30453 39.3049C4.24793 38.8877 4.34751 38.4653 4.58741 38.1052L7.12749 34.2788C6.82966 33.7431 6.57229 33.1899 6.35714 32.6228L1.5754 31.5376C1.1253 31.4355 0.725822 31.2005 0.4404 30.8698C0.154978 30.539 -2.65752e-05 30.1316 0 29.7122V26.6511C0.001517 26.2327 0.157228 25.8268 0.442529 25.4973C0.72783 25.1679 1.12645 24.9338 1.5754 24.832L6.36408 23.7531C6.5762 23.1838 6.83127 22.6284 7.12749 22.0908L4.58741 18.2581C4.34751 17.898 4.24793 17.4756 4.30453 17.0584C4.36113 16.6411 4.57066 16.2531 4.89971 15.956L7.30099 13.7919C7.62918 13.4959 8.05726 13.3075 8.51738 13.2563C8.9775 13.2052 9.44334 13.2943 9.84107 13.5096L14.0745 15.8054C14.6671 15.5361 15.2793 15.3035 15.9067 15.1092L17.1074 10.7872C17.2203 10.3804 17.4803 10.0193 17.8462 9.76135C18.2121 9.50337 18.6629 9.36327 19.1269 9.36329H22.5137C22.9789 9.36187 23.4313 9.50132 23.7986 9.75941C24.1659 10.0175 24.427 10.3793 24.5402 10.7872L25.7339 15.1154C26.3614 15.3073 26.9736 15.5378 27.5661 15.8054L31.8065 13.5096C32.2042 13.2943 32.6701 13.2052 33.1302 13.2563C33.5903 13.3075 34.0184 13.4959 34.3466 13.7919L36.7409 15.9497C37.07 16.2468 37.2795 16.6349 37.3361 17.0521C37.3927 17.4693 37.2931 17.8917 37.0532 18.2518L34.5131 22.0845C34.811 22.6202 35.0683 23.1734 35.2835 23.7405Z" fill="url(#paint2_radial)"/>
</g>
</g>
<g filter="url(#filter2_biii)">
<path d="M47.2244 10.8005L50.8165 11.6157C51.1546 11.6923 51.4547 11.8689 51.6692 12.1174C51.8836 12.3658 52 12.6718 52 12.9869V15.2865C51.9989 15.6008 51.8819 15.9058 51.6676 16.1532C51.4532 16.4007 51.1538 16.5766 50.8165 16.6531L47.2192 17.4636C47.0598 17.8912 46.8682 18.3084 46.6457 18.7123L48.5538 21.5915C48.7341 21.862 48.8089 22.1793 48.7664 22.4927C48.7238 22.8062 48.5664 23.0977 48.3192 23.3209L46.5206 24.9466C46.274 25.1689 45.9524 25.3105 45.6068 25.3489C45.2611 25.3873 44.9112 25.3203 44.6124 25.1586L41.4269 23.434C40.9818 23.6363 40.5219 23.811 40.0506 23.957L39.1486 27.2038C39.0638 27.5094 38.8684 27.7806 38.5936 27.9744C38.3187 28.1682 37.9801 28.2734 37.6315 28.2734H35.0873C34.7378 28.2745 34.3979 28.1697 34.122 27.9759C33.8461 27.782 33.65 27.5102 33.5649 27.2038L32.6682 23.9523C32.1968 23.8082 31.7369 23.635 31.2918 23.434L28.1063 25.1586C27.8076 25.3203 27.4576 25.3873 27.112 25.3489C26.7663 25.3105 26.4447 25.1689 26.1982 24.9466L24.3995 23.3209C24.1523 23.0977 23.9949 22.8062 23.9524 22.4927C23.9099 22.1793 23.9847 21.862 24.1649 21.5915L26.0731 18.717C25.8493 18.3146 25.656 17.899 25.4944 17.473L21.9022 16.6578C21.5641 16.5811 21.264 16.4045 21.0496 16.1561C20.8352 15.9076 20.7187 15.6016 20.7188 15.2865V12.9869C20.7199 12.6727 20.8369 12.3677 21.0512 12.1202C21.2655 11.8727 21.565 11.6969 21.9022 11.6204L25.4996 10.8099C25.6589 10.3823 25.8505 9.96504 26.0731 9.56114L24.1649 6.68196C23.9847 6.41143 23.9099 6.09415 23.9524 5.78071C23.9949 5.46728 24.1523 5.17573 24.3995 4.95257L26.2034 3.32685C26.4499 3.10454 26.7715 2.96296 27.1172 2.92455C27.4628 2.88614 27.8128 2.95309 28.1116 3.1148L31.2918 4.83948C31.737 4.63715 32.1968 4.46239 32.6682 4.31642L33.5701 1.06969C33.655 0.764072 33.8503 0.492831 34.1252 0.299033C34.4 0.105236 34.7387 -9.92155e-06 35.0873 8.12494e-06H37.6315C37.981 -0.00106249 38.3208 0.1037 38.5967 0.297581C38.8727 0.491461 39.0688 0.763287 39.1538 1.06969L40.0506 4.32113C40.5219 4.46523 40.9818 4.63842 41.4269 4.83948L44.6124 3.1148C44.9112 2.95309 45.2611 2.88614 45.6068 2.92455C45.9524 2.96296 46.274 3.10454 46.5206 3.32685L48.3192 4.94786C48.5664 5.17102 48.7238 5.46256 48.7664 5.776C48.8089 6.08944 48.7341 6.40672 48.5538 6.67725L46.6457 9.55642C46.8694 9.95883 47.0628 10.3745 47.2244 10.8005Z" fill="url(#paint3_linear)"/>
</g>
<defs>
<filter id="filter0_biii" x="21.8906" y="9.09375" width="40.1094" height="38.1758" filterUnits="userSpaceOnUse" color-interpolation-filters="sRGB">
<feFlood flood-opacity="0" result="BackgroundImageFix"/>
<feGaussianBlur in="BackgroundImage" stdDeviation="5"/>
<feComposite in2="SourceAlpha" operator="in" result="effect1_backgroundBlur"/>
<feBlend mode="normal" in="SourceGraphic" in2="effect1_backgroundBlur" result="shape"/>
<feColorMatrix in="SourceAlpha" type="matrix" values="0 0 0 0 0 0 0 0 0 0 0 0 0 0 0 0 0 0 127 0" result="hardAlpha"/>
<feOffset dy="-4"/>
<feGaussianBlur stdDeviation="0.5"/>
<feComposite in2="hardAlpha" operator="arithmetic" k2="-1" k3="1"/>
<feColorMatrix type="matrix" values="0 0 0 0 0.920833 0 0 0 0 0.920833 0 0 0 0 0.920833 0 0 0 0.1 0"/>
<feBlend mode="normal" in2="shape" result="effect2_innerShadow"/>
<feColorMatrix in="SourceAlpha" type="matrix" values="0 0 0 0 0 0 0 0 0 0 0 0 0 0 0 0 0 0 127 0" result="hardAlpha"/>
<feOffset dx="-1"/>
<feGaussianBlur stdDeviation="0.5"/>
<feComposite in2="hardAlpha" operator="arithmetic" k2="-1" k3="1"/>
<feColorMatrix type="matrix" values="0 0 0 0 0.920833 0 0 0 0 0.920833 0 0 0 0 0.920833 0 0 0 0.1 0"/>
<feBlend mode="normal" in2="effect2_innerShadow" result="effect3_innerShadow"/>
<feColorMatrix in="SourceAlpha" type="matrix" values="0 0 0 0 0 0 0 0 0 0 0 0 0 0 0 0 0 0 127 0" result="hardAlpha"/>
<feOffset dx="1"/>
<feGaussianBlur stdDeviation="0.5"/>
<feComposite in2="hardAlpha" operator="arithmetic" k2="-1" k3="1"/>
<feColorMatrix type="matrix" values="0 0 0 0 0.920833 0 0 0 0 0.920833 0 0 0 0 0.920833 0 0 0 0.1 0"/>
<feBlend mode="normal" in2="effect3_innerShadow" result="effect4_innerShadow"/>
</filter>
<filter id="filter1_iii" x="-1" y="8.36328" width="43.6406" height="38.6367" filterUnits="userSpaceOnUse" color-interpolation-filters="sRGB">
<feFlood flood-opacity="0" result="BackgroundImageFix"/>
<feBlend mode="normal" in="SourceGraphic" in2="BackgroundImageFix" result="shape"/>
<feColorMatrix in="SourceAlpha" type="matrix" values="0 0 0 0 0 0 0 0 0 0 0 0 0 0 0 0 0 0 127 0" result="hardAlpha"/>
<feOffset dy="-4"/>
<feGaussianBlur stdDeviation="0.5"/>
<feComposite in2="hardAlpha" operator="arithmetic" k2="-1" k3="1"/>
<feColorMatrix type="matrix" values="0 0 0 0 0 0 0 0 0 0 0 0 0 0 0 0 0 0 0.4 0"/>
<feBlend mode="normal" in2="shape" result="effect1_innerShadow"/>
<feColorMatrix in="SourceAlpha" type="matrix" values="0 0 0 0 0 0 0 0 0 0 0 0 0 0 0 0 0 0 127 0" result="hardAlpha"/>
<feOffset dx="-1"/>
<feGaussianBlur stdDeviation="0.5"/>
<feComposite in2="hardAlpha" operator="arithmetic" k2="-1" k3="1"/>
<feColorMatrix type="matrix" values="0 0 0 0 1 0 0 0 0 1 0 0 0 0 1 0 0 0 0.3 0"/>
<feBlend mode="normal" in2="effect1_innerShadow" result="effect2_innerShadow"/>
<feColorMatrix in="SourceAlpha" type="matrix" values="0 0 0 0 0 0 0 0 0 0 0 0 0 0 0 0 0 0 127 0" result="hardAlpha"/>
<feOffset dx="1"/>
<feGaussianBlur stdDeviation="0.5"/>
<feComposite in2="hardAlpha" operator="arithmetic" k2="-1" k3="1"/>
<feColorMatrix type="matrix" values="0 0 0 0 1 0 0 0 0 1 0 0 0 0 1 0 0 0 0.3 0"/>
<feBlend mode="normal" in2="effect2_innerShadow" result="effect3_innerShadow"/>
</filter>
<filter id="filter2_biii" x="10.7188" y="-10" width="51.2812" height="48.2734" filterUnits="userSpaceOnUse" color-interpolation-filters="sRGB">
<feFlood flood-opacity="0" result="BackgroundImageFix"/>
<feGaussianBlur in="BackgroundImage" stdDeviation="5"/>
<feComposite in2="SourceAlpha" operator="in" result="effect1_backgroundBlur"/>
<feBlend mode="normal" in="SourceGraphic" in2="effect1_backgroundBlur" result="shape"/>
<feColorMatrix in="SourceAlpha" type="matrix" values="0 0 0 0 0 0 0 0 0 0 0 0 0 0 0 0 0 0 127 0" result="hardAlpha"/>
<feOffset dy="-4"/>
<feGaussianBlur stdDeviation="0.5"/>
<feComposite in2="hardAlpha" operator="arithmetic" k2="-1" k3="1"/>
<feColorMatrix type="matrix" values="0 0 0 0 0.920833 0 0 0 0 0.920833 0 0 0 0 0.920833 0 0 0 0.1 0"/>
<feBlend mode="normal" in2="shape" result="effect2_innerShadow"/>
<feColorMatrix in="SourceAlpha" type="matrix" values="0 0 0 0 0 0 0 0 0 0 0 0 0 0 0 0 0 0 127 0" result="hardAlpha"/>
<feOffset dx="-1"/>
<feGaussianBlur stdDeviation="0.5"/>
<feComposite in2="hardAlpha" operator="arithmetic" k2="-1" k3="1"/>
<feColorMatrix type="matrix" values="0 0 0 0 0.920833 0 0 0 0 0.920833 0 0 0 0 0.920833 0 0 0 0.1 0"/>
<feBlend mode="normal" in2="effect2_innerShadow" result="effect3_innerShadow"/>
<feColorMatrix in="SourceAlpha" type="matrix" values="0 0 0 0 0 0 0 0 0 0 0 0 0 0 0 0 0 0 127 0" result="hardAlpha"/>
<feOffset dx="1"/>
<feGaussianBlur stdDeviation="0.5"/>
<feComposite in2="hardAlpha" operator="arithmetic" k2="-1" k3="1"/>
<feColorMatrix type="matrix" values="0 0 0 0 0.920833 0 0 0 0 0.920833 0 0 0 0 0.920833 0 0 0 0.1 0"/>
<feBlend mode="normal" in2="effect3_innerShadow" result="effect4_innerShadow"/>
</filter>
<linearGradient id="paint0_linear" x1="41.9453" y1="19.0938" x2="41.9453" y2="37.2695" gradientUnits="userSpaceOnUse">
<stop stop-color="#1B4773" stop-opacity="0.15"/>
<stop offset="1" stop-color="#1B4773" stop-opacity="0.15"/>
</linearGradient>
<linearGradient id="paint1_linear" x1="20.8222" y1="9.18336" x2="20.8222" y2="46.7048" gradientUnits="userSpaceOnUse">
<stop stop-color="white" stop-opacity="0.4"/>
<stop offset="0.833333" stop-color="white" stop-opacity="0"/>
<stop offset="1" stop-color="white" stop-opacity="0.3"/>
</linearGradient>
<radialGradient id="paint2_radial" cx="0" cy="0" r="1" gradientUnits="userSpaceOnUse" gradientTransform="translate(-1.21704e-08 14.3044) scale(31.9307 44.7929)">
<stop stop-color="white" stop-opacity="0.7"/>
<stop offset="1" stop-color="white" stop-opacity="0"/>
</radialGradient>
<linearGradient id="paint3_linear" x1="36.3594" y1="0" x2="36.3594" y2="28.2734" gradientUnits="userSpaceOnUse">
<stop stop-color="#A6A0BA" stop-opacity="0.4"/>
<stop offset="1" stop-opacity="0.2"/>
</linearGradient>
</defs>
</svg>
